<svg xmlns="http://www.w3.org/2000/svg" width="24" height="24" style="fill: #925a49;transform: ;msFilter:;"><path fill-rule="evenodd" clip-rule="evenodd" d="M10 3a1 1 0 00-1 1v1a4 4 0 00-4 4v3.557l-2.187.82L3.844 17.5H4c.647 0 1.258-.135 1.811-.379l-.624-2.498L12 12.068l6.813 2.555-.624 2.498A4.477 4.477 0 0020 17.5h.156l1.03-4.123-2.186-.82V9a4 4 0 00-4-4V4a1 1 0 00-1-1h-4zm7 6v2.807l-5-1.875-5 1.875V9a2 2 0 012-2h6a2 2 0 012 2z"></path><path d="M8.572 17.925l-.572-.4-.572.4A5.968 5.968 0 014 19H2v2h2c1.456 0 2.823-.39 4-1.07A7.967 7.967 0 0012 21c1.456 0 2.823-.39 4-1.07A7.967 7.967 0 0020 21h2v-2h-2a5.968 5.968 0 01-3.428-1.075l-.572-.4-.572.4A5.968 5.968 0 0112 19a5.968 5.968 0 01-3.428-1.075z"></path></svg>