<svg xmlns="http://www.w3.org/2000/svg" width="24" height="24" style="fill: #255a60;transform: ;msFilter:;"><path fill-rule="evenodd" clip-rule="evenodd" d="M4.5 4A2.5 2.5 0 002 6.5V17h2a3 3 0 106 0h4a3 3 0 106 0h2v-5.583A7.417 7.417 0 0014.583 4H4.5zM17 14a2.99 2.99 0 00-2.236 1H9.236c-.55-.614-1.348-1-2.236-1-.888 0-1.687.386-2.236 1H4v-3h16v3h-.764c-.55-.614-1.348-1-2.236-1zm2.813-4A5.427 5.427 0 0016 6.187V10h3.813zM8 6H4.5a.5.5 0 00-.5.5V10h4V6zm2 0v4h4V6h-4zM6 17a1 1 0 112 0 1 1 0 01-2 0zm11-1a1 1 0 100 2 1 1 0 000-2z"></path></svg>