<svg xmlns="http://www.w3.org/2000/svg" width="24" height="24" style="fill: #1593ff;transform: ;msFilter:;"><path fill-rule="evenodd" clip-rule="evenodd" d="M17.12 8.821A3.5 3.5 0 1011 6.5v.035a4 4 0 00-4.8 6.322c-1.016.479-1.856 1.206-2.517 2.065-1.173 1.524-1.793 3.47-1.93 5.251L1.67 21.25h14.66l-.083-1.077a10.483 10.483 0 00-1.093-3.923h6.191l-.1-1.09c-.14-1.559-.768-3.256-1.877-4.583a6.566 6.566 0 00-2.248-1.756zM16 6.5a1.5 1.5 0 11-3 0 1.5 1.5 0 013 0zm-2.264 7.75h5.32c-.233-.854-.646-1.7-1.223-2.39-.808-.967-1.917-1.61-3.333-1.61-.6 0-1.106.114-1.538.305a3.99 3.99 0 01-1.163 2.303c.74.347 1.386.826 1.937 1.392zM9 12a2 2 0 100-4 2 2 0 000 4zm5.1 7.25H3.9c.232-1.123.691-2.228 1.368-3.11.876-1.137 2.1-1.89 3.732-1.89 1.633 0 2.856.753 3.732 1.89.677.882 1.136 1.987 1.368 3.11z"></path></svg>