<svg xmlns="http://www.w3.org/2000/svg" width="24" height="24" style="fill: #391f5a;transform: ;msFilter:;"><path fill-rule="evenodd" clip-rule="evenodd" d="M12.1 11.924a5 5 0 10-6.199 0c-1.326.624-2.357 1.62-3.127 2.721-1.271 1.82-1.882 3.99-2.02 5.506l-.1 1.091h16.691l-.1-1.09c-.137-1.516-.748-3.687-2.019-5.507-.098-.14-.2-.278-.306-.415l.555-1.104c.703.188 1.088.478 1.33.808.567.772 1.008 1.342 1.534 1.742.56.426 1.152.611 1.868.8l.784.206 2.89-5.75-1.196-.313c-.691-.18-.932-.292-1.142-.46-.257-.206-.526-.542-1.135-1.371-.487-.665-1.147-1.165-2.018-1.462l.313-.623-1.787-.898-3.485 6.934a7.228 7.228 0 00-1.332-.815zM12 8a3 3 0 11-6 0 3 3 0 016 0zm-.802 9.183l1.313-2.613c-.911-.804-2.063-1.32-3.511-1.32-2.09 0-3.564 1.077-4.586 2.54-.764 1.094-1.245 2.367-1.49 3.452h12.152c-.21-.93-.594-2-1.18-2.974l-.911 1.813-1.787-.898zm5.211-5.86l1.094-2.177c.664.17 1.038.477 1.293.825.56.764.99 1.344 1.498 1.75.233.187.473.33.727.447l-1.074 2.136a1.62 1.62 0 01-.398-.22c-.258-.196-.538-.524-1.132-1.334-.496-.675-1.17-1.136-2.008-1.428z"></path></svg>