<svg xmlns="http://www.w3.org/2000/svg" width="24" height="24" style="fill: #ff7083;transform: ;msFilter:;"><path d="M16.74 9.423l-1.48-1.346-4.294 4.724-1.759-1.758-1.414 1.414 3.241 3.242 5.706-6.276z"></path><path fill-rule="evenodd" clip-rule="evenodd" d="M2 4v4.875l1.088 1.02a2.885 2.885 0 010 4.21L2 15.125V20h20v-4.875l-1.088-1.02a2.885 2.885 0 010-4.21L22 8.875V4H2zm17.544 4.436L20 8.009V6H4v2.009l.456.427a4.885 4.885 0 010 7.128L4 15.992V18h16v-2.008l-.456-.428a4.885 4.885 0 010-7.128z"></path></svg>