<svg xmlns="http://www.w3.org/2000/svg" width="24" height="24" style="fill: #1a2b49;transform: ;msFilter:;"><path fill-rule="evenodd" clip-rule="evenodd" d="M12 2c5.523 0 10 4.477 10 10s-4.477 10-10 10S2 17.523 2 12 6.477 2 12 2zm0 18c.215 0 .948-.226 1.747-1.823.306-.613.574-1.348.783-2.177H9.47c.209.83.477 1.564.783 2.177C11.052 19.774 11.785 20 12 20zm-2.889-6A17.735 17.735 0 019 12c0-.695.04-1.364.111-2h5.777a18.04 18.04 0 01.001 4H9.11zm7.473 2c-.266 1.217-.65 2.307-1.121 3.214A8.035 8.035 0 0018.93 16h-2.346zm3.164-2H16.9a19.826 19.826 0 000-4h2.848c.165.64.252 1.31.252 2a8 8 0 01-.252 2zM7.1 14H4.252A8.015 8.015 0 014 12c0-.69.088-1.36.252-2H7.1a19.829 19.829 0 000 4zm-2.03 2h2.346c.266 1.217.65 2.307 1.121 3.214A8.035 8.035 0 015.07 16zm4.4-8h5.06a10.79 10.79 0 00-.783-2.177C12.948 4.226 12.215 4 12 4c-.215 0-.948.226-1.747 1.823A10.787 10.787 0 009.47 8zm7.114 0h2.346a8.035 8.035 0 00-3.467-3.214c.472.907.855 1.997 1.121 3.214zM8.537 4.786C8.065 5.693 7.682 6.783 7.416 8H5.07a8.035 8.035 0 013.467-3.214z"></path></svg>